<svg width="160" height="32" viewBox="0 0 160 32" fill="none" xmlns="http://www.w3.org/2000/svg">
<path d="M0 0.215167C4.79589 0.0579844 4.79589 0.0579845 6.72 1.81517C7.73385 2.8751 8.21242 4.09763 8.61438 5.48454C8.65419 5.61834 8.694 5.75213 8.73502 5.88997C8.86113 6.31472 8.98559 6.73992 9.11 7.16517C9.1927 7.44468 9.27552 7.72416 9.35844 8.00361C9.60043 8.82036 9.84035 9.63772 10.08 10.4552C10.2247 10.9479 10.3695 11.4406 10.5144 11.9333C10.5475 12.0461 10.5807 12.1588 10.6148 12.275C10.8406 13.0425 11.0688 13.8093 11.3 14.5752C11.7972 16.2274 12.2885 17.8813 12.78 19.5352C12.8407 19.7394 12.8407 19.7394 12.9026 19.9478C13.1351 20.7302 13.3676 21.5127 13.6 22.2952C13.8749 21.5774 14.1359 20.8698 14.3381 20.1277C14.4042 19.8878 14.4042 19.8878 14.4716 19.6431C14.5173 19.4755 14.5629 19.3079 14.61 19.1352C15.2468 16.8312 15.9262 14.5433 16.65 12.2652C17.2008 10.531 17.7186 8.78938 18.2019 7.03517C18.2512 6.85679 18.3005 6.67841 18.3513 6.49462C18.4484 6.14248 18.5447 5.79015 18.6403 5.43759C19.1223 3.68745 19.6824 2.28765 21.22 1.20517C23.0089 0.196595 25.0572 0.318634 27.04 0.375167C26.8957 1.01947 26.6775 1.63972 26.4669 2.26454C26.4056 2.44756 26.4056 2.44756 26.343 2.63427C26.169 3.15379 25.9944 3.67313 25.8198 4.19247C25.6919 4.57309 25.5643 4.95379 25.4369 5.33454C25.3744 5.52103 25.3744 5.52103 25.3107 5.71128C25.0193 6.58542 24.7455 7.46363 24.4877 8.34833C24.3488 8.76809 24.195 9.16908 24.0277 9.57779C23.6193 10.5861 23.2801 11.6151 22.9387 12.6477C22.8682 12.8599 22.7976 13.0721 22.727 13.2843C22.5415 13.842 22.3566 14.4 22.1717 14.958C21.9894 15.5082 21.8066 16.0582 21.6237 16.6083C21.3334 17.4821 21.0432 18.356 20.7532 19.2299C18.6334 25.6172 18.6334 25.6172 17.6247 28.4899C17.5602 28.675 17.4958 28.8601 17.4294 29.0508C17.3734 29.2104 17.3174 29.3701 17.2596 29.5346C17.129 29.9467 17.0354 30.3498 16.96 30.7752C16.0088 30.787 15.0577 30.7957 14.1065 30.8015C13.7827 30.804 13.459 30.8072 13.1352 30.8114C12.6706 30.8172 12.206 30.8199 11.7413 30.822C11.5959 30.8245 11.4506 30.827 11.3008 30.8295C11.0991 30.8296 11.0991 30.8296 10.8932 30.8297C10.7152 30.8313 10.7152 30.8313 10.5336 30.8329C10.4367 30.8138 10.3398 30.7948 10.24 30.7752C9.89202 30.2532 9.77259 29.8292 9.61 29.2252C9.41595 28.5063 9.19152 27.8157 8.92788 27.1196C8.7259 26.5756 8.54352 26.0254 8.36125 25.4745C8.32121 25.3542 8.28117 25.2339 8.23992 25.1099C8.11305 24.7284 7.98652 24.3468 7.86 23.9652C7.77648 23.7138 7.69294 23.4625 7.60938 23.2111C7.56833 23.0876 7.52728 22.9641 7.48499 22.8368C7.4026 22.589 7.32019 22.3411 7.23774 22.0932C7.04494 21.5132 6.85288 20.9331 6.66297 20.3521C6.62842 20.247 6.59387 20.1419 6.55828 20.0336C6.46619 19.7534 6.3746 19.4731 6.28305 19.1927C6.12571 18.7452 5.95782 18.3105 5.7782 17.872C5.39593 16.926 5.08252 15.9611 4.77 14.9902C4.7085 14.8009 4.647 14.6116 4.58363 14.4166C4.32282 13.6139 4.06326 12.8108 3.80359 12.0077C3.61283 11.4184 3.42143 10.8293 3.23 10.2402C3.14347 9.97135 3.14347 9.97135 3.0552 9.6971C2.75699 8.77963 2.43455 7.88191 2.06896 6.98924C1.83228 6.3949 1.63417 5.78933 1.4375 5.18079C1.39579 5.05279 1.35408 4.9248 1.3111 4.79292C1.22426 4.52588 1.1377 4.25875 1.05141 3.99153C0.918949 3.58192 0.785146 3.17275 0.65125 2.7636C0.566586 2.50269 0.482 2.24176 0.3975 1.98079C0.35751 1.8588 0.31752 1.7368 0.276318 1.61111C0.121256 1.12802 0 0.725903 0 0.215167Z" fill="white"/>
<path d="M39.2 9.97512C39.3941 10.0349 39.5882 10.0947 39.7882 10.1564C41.5715 10.7775 42.9476 11.7879 43.8394 13.477C44.2347 14.3489 44.3396 15.1466 44.3453 16.0955C44.3469 16.2942 44.3486 16.493 44.3503 16.6978C44.3508 16.8033 44.3514 16.9087 44.3519 17.0174C44.3538 17.3507 44.3569 17.684 44.3604 18.0173C44.3702 18.9646 44.3789 19.9119 44.3843 20.8592C44.3877 21.4401 44.3933 22.0209 44.4004 22.6018C44.4026 22.8212 44.404 23.0407 44.4046 23.2602C44.4104 25.5032 44.7421 27.8189 46.2669 29.5745C46.491 29.797 46.7196 30.0152 46.9538 30.227C47.0757 30.3399 47.0757 30.3399 47.2 30.4551C47.2 30.5079 47.2 30.5607 47.2 30.6151C46.426 30.6271 45.6519 30.6357 44.8778 30.6415C44.6149 30.6439 44.352 30.6472 44.0892 30.6513C43.7095 30.6572 43.3298 30.6599 42.95 30.662C42.8342 30.6645 42.7183 30.667 42.5989 30.6695C41.4912 30.6699 40.3992 30.3492 39.52 29.6551C39.1733 29.1909 38.8617 28.7096 38.56 28.2151C38.4825 28.2982 38.4049 28.3814 38.325 28.467C37.1605 29.6786 35.9865 30.3872 34.4 30.9351C34.2328 30.9931 34.0655 31.051 33.8932 31.1107C33.1302 31.2904 32.4209 31.3034 31.64 31.2951C31.4153 31.293 31.4153 31.293 31.1859 31.2908C29.0115 31.2543 26.9477 30.8105 25.28 29.3051C23.9734 27.8426 23.6292 26.1914 23.645 24.2976C23.7382 22.8007 24.3742 21.713 25.45 20.6851C28.0898 18.4426 31.9198 18.4729 35.2 18.2951C35.367 18.2859 35.534 18.2766 35.7061 18.2671C36.6039 18.218 37.5018 18.174 38.4 18.1351C38.3871 16.3309 38.3871 16.3309 37.6 14.7751C36.5386 13.9395 35.6623 13.76 34.35 13.7651C34.2194 13.7625 34.0887 13.76 33.9541 13.7573C32.9279 13.7565 32.0364 13.9014 31.1963 14.542C31.0893 14.6722 31.0893 14.6722 30.98 14.8051C30.8693 14.9323 30.8693 14.9323 30.7563 15.062C30.4696 15.542 30.4696 15.542 30.24 16.6951C28.2864 16.6951 26.3328 16.6951 24.32 16.6951C24.501 14.8855 24.501 14.8855 25 13.9351C25.0933 13.7528 25.1865 13.5705 25.2825 13.3826C26.5795 11.2278 28.704 10.1499 31.07 9.52512C33.7541 9.00794 36.5942 9.171 39.2 9.97512Z" fill="white"/>
<path d="M85.7599 11.5753C87.9646 13.3588 89.0545 15.8884 89.5999 18.6153C89.5999 19.7241 89.5999 20.8329 89.5999 21.9753C84.3727 21.9753 79.1455 21.9753 73.7599 21.9753C74.5868 24.7211 74.5868 24.7211 76.5755 26.269C77.728 26.8274 79.2578 26.7998 80.4849 26.4946C81.4131 26.1382 82.1886 25.7471 82.6563 24.8355C83.0399 24.3753 83.0399 24.3753 83.656 24.2956C83.9035 24.3092 84.1507 24.3281 84.3974 24.3515C84.5931 24.3642 84.5931 24.3642 84.7928 24.3771C85.209 24.4052 85.6243 24.4401 86.0399 24.4753C86.3222 24.4955 86.6045 24.5153 86.8868 24.5346C87.5783 24.583 88.2691 24.6375 88.9599 24.6953C88.6199 25.7969 88.2123 26.6498 87.5199 27.5753C87.4475 27.6743 87.3751 27.7733 87.3005 27.8753C85.7921 29.7897 83.1651 30.8872 80.7868 31.1859C79.9114 31.2754 79.0392 31.2847 78.1599 31.2853C78.0029 31.2872 77.846 31.2892 77.6843 31.2912C74.9568 31.2966 72.4229 30.2142 70.4399 28.3353C67.9783 25.7374 67.4146 22.74 67.4699 19.2928C67.5737 16.4287 68.7224 13.9521 70.8168 11.9834C75.0115 8.40396 81.2944 8.47274 85.7599 11.5753Z" fill="white"/>
<path d="M145.6 9.81518C145.774 9.87148 145.947 9.92779 146.126 9.9858C148.988 11.0012 150.828 12.7217 152.16 15.4152C153.14 17.5905 153.12 19.5528 153.12 21.9752C147.893 21.9752 142.666 21.9752 137.28 21.9752C137.678 23.7681 138.139 24.986 139.641 26.0808C140.926 26.8478 142.585 26.8289 144.026 26.4995C144.974 26.1462 145.661 25.6613 146.147 24.7489C146.632 24.31 146.756 24.3205 147.389 24.3208C147.723 24.3377 148.057 24.3594 148.39 24.3852C148.562 24.3955 148.734 24.4058 148.912 24.4164C150.113 24.4948 151.299 24.6176 152.48 24.8552C151.781 27.1667 150.24 28.8192 148.16 29.9752C147.48 30.296 146.797 30.5482 146.08 30.7752C145.939 30.8261 145.797 30.8771 145.652 30.9296C142.762 31.8369 139.183 31.3918 136.48 30.1352C134.541 29.1054 133.244 27.7062 132.16 25.8152C132.096 25.7104 132.032 25.6056 131.966 25.4977C131.031 23.8477 130.997 22.0003 130.99 20.1552C130.989 19.9764 130.988 19.7976 130.987 19.6134C130.996 18.6354 131.077 17.7912 131.36 16.8552C131.4 16.6995 131.44 16.5437 131.481 16.3833C132.267 13.7189 134.132 11.8376 136.48 10.4552C137.002 10.1901 137.521 9.98983 138.08 9.81518C138.226 9.76753 138.373 9.71989 138.524 9.6708C140.776 9.04269 143.38 9.08985 145.6 9.81518Z" fill="white"/>
<path d="M126.571 10.5878C127.967 11.612 128.656 12.9817 129.12 14.6153C129.173 14.7737 129.226 14.9321 129.28 15.0953C129.294 15.3126 129.299 15.5305 129.299 15.7482C129.3 15.9471 129.3 15.9471 129.3 16.15C129.299 16.3674 129.299 16.3674 129.298 16.5891C129.298 16.7421 129.298 16.8951 129.298 17.0528C129.298 17.5592 129.297 18.0657 129.296 18.5721C129.295 18.923 129.295 19.2739 129.295 19.6247C129.294 20.5488 129.293 21.4728 129.291 22.3969C129.289 23.3396 129.289 24.2822 129.288 25.2249C129.286 27.075 129.283 28.9251 129.28 30.7753C127.274 30.7753 125.267 30.7753 123.2 30.7753C123.194 29.7987 123.188 28.8221 123.182 27.8159C123.177 27.1954 123.172 26.5748 123.167 25.9543C123.158 24.9705 123.15 23.9867 123.145 23.0028C123.14 22.2091 123.134 21.4155 123.126 20.6219C123.123 20.3199 123.121 20.0178 123.12 19.7158C123.119 19.2911 123.114 18.8665 123.109 18.4419C123.109 18.3184 123.11 18.1949 123.11 18.0676C123.093 17.0694 122.922 16.0408 122.296 15.2359C122.205 15.1664 122.114 15.0969 122.02 15.0253C121.93 14.9529 121.839 14.8805 121.746 14.8059C120.629 14.1103 119.316 14.1327 118.044 14.3584C117.226 14.6473 116.621 15.3461 116.16 16.0553C115.759 16.9773 115.609 17.7148 115.611 18.7143C115.609 18.8456 115.608 18.9769 115.606 19.1121C115.601 19.5415 115.6 19.9708 115.598 20.4003C115.595 20.6998 115.592 20.9993 115.589 21.2987C115.582 22.0836 115.577 22.8685 115.573 23.6534C115.567 24.597 115.558 25.5405 115.55 26.4841C115.537 27.9145 115.529 29.3448 115.52 30.7753C113.514 30.7753 111.507 30.7753 109.44 30.7753C109.44 23.9113 109.44 17.0473 109.44 9.97525C111.498 9.97525 113.036 10.1392 114.56 11.5753C114.78 11.8362 114.996 12.1011 115.2 12.3753C115.306 12.4281 115.411 12.4809 115.52 12.5353C115.562 12.4424 115.603 12.3496 115.646 12.254C116.455 10.7566 118.02 10.0069 119.566 9.474C121.984 8.90945 124.45 9.32349 126.571 10.5878Z" fill="white"/>
<path d="M38.1541 21.368C38.3014 24.2487 38.3014 24.2487 37.6016 25.1274C36.1839 26.5056 34.5366 26.8605 32.6016 26.843C31.5102 26.7706 30.6287 26.4586 29.8341 25.688C29.3556 24.9704 29.4021 24.2886 29.5141 23.448C30.0538 22.4584 30.8656 22.1725 31.9141 21.848C32.5226 21.7409 33.1277 21.6947 33.7441 21.658C34.0539 21.6357 34.3637 21.6134 34.6734 21.5911C34.825 21.5811 34.9766 21.5712 35.1327 21.5609C35.7416 21.5175 36.3486 21.4589 36.956 21.3984C37.357 21.3678 37.752 21.3628 38.1541 21.368Z" fill="#2C2C2C"/>
<path d="M80.6742 13.9555C81.7128 14.5686 82.4673 15.3033 82.9542 16.408C83.0598 16.936 83.1654 17.464 83.2742 18.008C80.0534 18.008 76.8326 18.008 73.5142 18.008C73.7164 16.5924 74.1706 15.4426 75.2742 14.488C76.9308 13.344 78.8231 13.0909 80.6742 13.9555Z" fill="#2C2C2C"/>
<path d="M144.28 13.9555C145.318 14.5686 146.073 15.3033 146.56 16.408C146.665 16.936 146.771 17.464 146.88 18.008C143.659 18.008 140.438 18.008 137.12 18.008C137.322 16.5924 137.776 15.4426 138.88 14.488C140.537 13.344 142.429 13.0909 144.28 13.9555Z" fill="#2C2C2C"/>
<path d="M55.8501 9.27517C56.0098 9.27543 56.1696 9.27569 56.3342 9.27595C57.7868 9.29966 59.0977 9.54235 60.4801 9.97517C60.6358 10.0232 60.7915 10.0713 60.9519 10.1208C62.8736 10.8006 64.1762 12.2197 65.1232 13.9727C65.2801 14.4552 65.2801 14.4552 65.4401 16.2152C63.4865 16.2152 61.5329 16.2152 59.5201 16.2152C59.2561 15.6872 58.9921 15.1592 58.7201 14.6152C57.5526 13.6258 56.2088 13.666 54.7381 13.7634C54.0857 13.8633 53.5309 14.1414 52.9701 14.4852C52.6851 14.9713 52.7199 15.5126 52.8001 16.0552C52.9405 16.4454 53.0198 16.6411 53.3888 16.8402C55.1011 17.3033 56.8557 17.6444 58.6063 17.9289C61.2174 18.3599 63.6659 19.1107 65.2801 21.3352C66.0768 22.6815 66.1162 24.3913 65.8463 25.9102C65.3723 27.494 64.2699 28.9551 62.8526 29.7964C59.6462 31.5161 55.4117 31.8693 51.9219 30.8264C50.0108 30.1079 48.3593 29.1135 47.3801 27.2652C46.9374 26.2834 46.5601 25.2987 46.5601 24.2152C48.5665 24.2152 50.5729 24.2152 52.6401 24.2152C52.7985 24.6904 52.9569 25.1656 53.1201 25.6552C54.0396 26.6165 54.9124 26.9601 56.2101 26.9952C57.3954 26.9638 58.4024 26.8061 59.3701 26.0952C59.7543 25.5498 59.8522 25.2017 59.8401 24.5352C59.279 23.7938 58.6383 23.5312 57.7482 23.3564C57.5534 23.3175 57.3586 23.2785 57.1579 23.2383C56.9507 23.1977 56.7435 23.157 56.5301 23.1152C56.1057 23.0294 55.6817 22.9426 55.2576 22.8558C55.0535 22.8142 54.8494 22.7725 54.6391 22.7296C49.5949 21.697 49.5949 21.697 48.0682 19.7308C48.0094 19.6299 47.9506 19.5291 47.8901 19.4252C47.83 19.3247 47.77 19.2243 47.7082 19.1208C47.6461 19.0067 47.584 18.8927 47.5201 18.7752C47.392 18.566 47.392 18.566 47.2613 18.3527C46.966 17.6354 46.9637 17.0132 46.9701 16.2452C46.9669 16.1089 46.9637 15.9727 46.9604 15.8324C46.9616 14.2583 47.635 13.001 48.6601 11.8252C50.7529 9.95977 53.0787 9.27045 55.8501 9.27517Z" fill="white"/>
<path d="M91.8401 0.215088C93.8465 0.215088 95.8529 0.215088 97.9201 0.215088C97.9201 10.2999 97.9201 20.3847 97.9201 30.7751C95.9137 30.7751 93.9073 30.7751 91.8401 30.7751C91.8401 20.6903 91.8401 10.6055 91.8401 0.215088Z" fill="white"/>
<path d="M106.72 9.9751C106.72 16.8391 106.72 23.7031 106.72 30.7751C104.714 30.7751 102.707 30.7751 100.64 30.7751C100.625 28.5233 100.614 26.2716 100.607 24.0197C100.603 22.9741 100.599 21.9285 100.592 20.8828C100.585 19.8734 100.581 18.864 100.579 17.8546C100.578 17.4698 100.576 17.085 100.572 16.7002C100.568 16.1606 100.567 15.621 100.567 15.0813C100.565 14.9229 100.563 14.7644 100.56 14.6011C100.566 13.599 100.747 12.9048 101.28 12.0551C101.366 11.9165 101.452 11.7779 101.54 11.6351C103.078 10.0967 104.598 9.9751 106.72 9.9751Z" fill="white"/>
<path d="M105.722 0.615822C106.416 1.08056 106.877 1.68362 107.2 2.4552C107.35 3.58254 107.251 4.57187 106.56 5.4952C105.862 6.2373 105.18 6.71644 104.146 6.82895C102.862 6.84419 102.12 6.78845 101.171 5.87707C100.372 5.01474 100.068 4.15857 100.1 2.98332C100.267 1.95583 101.01 1.19088 101.8 0.565197C103.071 -0.298772 104.446 -0.0837353 105.722 0.615822Z" fill="white"/>
<path d="M155.802 7.3999V5.07263H156.721C156.896 5.07263 157.046 5.10407 157.171 5.16695C157.296 5.22907 157.391 5.31733 157.456 5.43172C157.522 5.54536 157.555 5.67907 157.555 5.83286C157.555 5.9874 157.521 6.12036 157.455 6.23172C157.388 6.34233 157.291 6.42717 157.165 6.48627C157.039 6.54536 156.887 6.5749 156.708 6.5749H156.093V6.17945H156.629C156.722 6.17945 156.8 6.16657 156.863 6.14081C156.925 6.11505 156.971 6.07642 157.001 6.0249C157.032 5.97339 157.048 5.90937 157.048 5.83286C157.048 5.75558 157.032 5.69043 157.001 5.6374C156.971 5.58437 156.924 5.54422 156.861 5.51695C156.799 5.48892 156.721 5.4749 156.626 5.4749H156.294V7.3999H155.802ZM157.059 6.34081L157.638 7.3999H157.094L156.529 6.34081H157.059Z" fill="white"/>
<circle cx="156.8" cy="6.39995" r="2.96" stroke="white" stroke-width="0.48"/>
</svg>
