<svg width="160" height="32" viewBox="0 0 160 32" fill="none" xmlns="http://www.w3.org/2000/svg">
<path d="M0 0.509051C4.79589 0.351869 4.79589 0.351869 6.72 2.10905C7.73385 3.16898 8.21242 4.39151 8.61438 5.77843C8.65419 5.91222 8.694 6.04601 8.73502 6.18386C8.86113 6.6086 8.98559 7.03381 9.11 7.45905C9.1927 7.73856 9.27552 8.01804 9.35844 8.29749C9.60043 9.11425 9.84035 9.93161 10.08 10.7491C10.2247 11.2418 10.3695 11.7345 10.5144 12.2272C10.5475 12.3399 10.5807 12.4527 10.6148 12.5689C10.8406 13.3364 11.0688 14.1031 11.3 14.8691C11.7972 16.5212 12.2885 18.1752 12.78 19.8291C12.8407 20.0333 12.8407 20.0333 12.9026 20.2417C13.1351 21.0241 13.3676 21.8066 13.6 22.5891C13.8749 21.8713 14.1359 21.1636 14.3381 20.4216C14.4042 20.1817 14.4042 20.1817 14.4716 19.9369C14.5173 19.7693 14.5629 19.6017 14.61 19.4291C15.2468 17.1251 15.9262 14.8372 16.65 12.5591C17.2008 10.8249 17.7186 9.08326 18.2019 7.32905C18.2512 7.15067 18.3005 6.97229 18.3513 6.78851C18.4484 6.43637 18.5447 6.08403 18.6403 5.73147C19.1223 3.98133 19.6824 2.58153 21.22 1.49905C23.0089 0.49048 25.0572 0.612519 27.04 0.669051C26.8957 1.31336 26.6775 1.9336 26.4669 2.55843C26.4056 2.74144 26.4056 2.74144 26.343 2.92816C26.169 3.44768 25.9944 3.96701 25.8198 4.48636C25.6919 4.86698 25.5643 5.24767 25.4369 5.62843C25.3744 5.81491 25.3744 5.81491 25.3107 6.00516C25.0193 6.87931 24.7455 7.75752 24.4877 8.64222C24.3488 9.06197 24.195 9.46296 24.0277 9.87167C23.6193 10.88 23.2801 11.909 22.9387 12.9416C22.8682 13.1538 22.7976 13.366 22.727 13.5782C22.5415 14.1359 22.3566 14.6939 22.1717 15.2518C21.9894 15.8021 21.8066 16.3521 21.6237 16.9022C21.3334 17.776 21.0432 18.6499 20.7532 19.5238C18.6334 25.911 18.6334 25.911 17.6247 28.7837C17.5602 28.9688 17.4958 29.154 17.4294 29.3447C17.3734 29.5043 17.3174 29.664 17.2596 29.8285C17.129 30.2406 17.0354 30.6437 16.96 31.0691C16.0088 31.0809 15.0577 31.0896 14.1065 31.0954C13.7827 31.0978 13.459 31.1011 13.1352 31.1053C12.6706 31.1111 12.206 31.1138 11.7413 31.1159C11.5959 31.1184 11.4506 31.1209 11.3008 31.1234C11.0991 31.1235 11.0991 31.1235 10.8932 31.1235C10.7152 31.1251 10.7152 31.1251 10.5336 31.1268C10.4367 31.1077 10.3398 31.0887 10.24 31.0691C9.89202 30.5471 9.77259 30.123 9.61 29.5191C9.41595 28.8002 9.19152 28.1096 8.92788 27.4135C8.7259 26.8695 8.54352 26.3193 8.36125 25.7684C8.32121 25.6481 8.28117 25.5277 8.23992 25.4037C8.11305 25.0223 7.98652 24.6407 7.86 24.2591C7.77648 24.0077 7.69294 23.7563 7.60938 23.505C7.56833 23.3815 7.52728 23.258 7.48499 23.1307C7.4026 22.8828 7.32019 22.635 7.23774 22.3871C7.04494 21.8071 6.85288 21.2269 6.66297 20.646C6.62842 20.5409 6.59387 20.4358 6.55828 20.3275C6.46619 20.0473 6.3746 19.767 6.28305 19.4866C6.12571 19.0391 5.95782 18.6044 5.7782 18.1659C5.39593 17.2198 5.08252 16.255 4.77 15.2841C4.7085 15.0948 4.647 14.9055 4.58363 14.7105C4.32282 13.9078 4.06326 13.1047 3.80359 12.3016C3.61283 11.7123 3.42143 11.1232 3.23 10.5341C3.14347 10.2652 3.14347 10.2652 3.0552 9.99099C2.75699 9.07351 2.43455 8.1758 2.06896 7.28313C1.83228 6.68878 1.63417 6.08321 1.4375 5.47468C1.39579 5.34668 1.35408 5.21868 1.3111 5.0868C1.22426 4.81976 1.1377 4.55263 1.05141 4.28542C0.918949 3.8758 0.785146 3.46664 0.65125 3.05749C0.566586 2.79658 0.482 2.53564 0.3975 2.27468C0.35751 2.15268 0.31752 2.03068 0.276318 1.90499C0.121256 1.4219 0 1.01979 0 0.509051Z" fill="#064F89"/>
<path d="M39.2 10.269C39.3941 10.3289 39.5881 10.3887 39.7881 10.4503C41.5714 11.0715 42.9476 12.0818 43.8394 13.7709C44.2347 14.6428 44.3396 15.4405 44.3452 16.3894C44.3469 16.5881 44.3485 16.7869 44.3502 16.9917C44.3507 17.0972 44.3513 17.2027 44.3519 17.3113C44.3538 17.6446 44.3569 17.9779 44.3604 18.3112C44.3702 19.2585 44.3788 20.2058 44.3842 21.1531C44.3876 21.734 44.3933 22.3148 44.4003 22.8957C44.4026 23.1151 44.404 23.3346 44.4045 23.5541C44.4103 25.7971 44.7421 28.1128 46.2669 29.8684C46.491 30.0909 46.7195 30.3091 46.9537 30.5209C47.0756 30.6338 47.0756 30.6338 47.2 30.749C47.2 30.8018 47.2 30.8546 47.2 30.909C46.4259 30.921 45.6519 30.9297 44.8777 30.9354C44.6148 30.9378 44.352 30.9411 44.0891 30.9452C43.7094 30.9511 43.3298 30.9538 42.95 30.9559C42.8341 30.9584 42.7182 30.9609 42.5988 30.9634C41.4911 30.9638 40.3991 30.6431 39.52 29.949C39.1733 29.4848 38.8616 29.0035 38.56 28.509C38.4824 28.5922 38.4049 28.6753 38.325 28.7609C37.1605 29.9725 35.9864 30.6811 34.4 31.229C34.2327 31.287 34.0654 31.345 33.8931 31.4047C33.1301 31.5843 32.4208 31.5974 31.64 31.589C31.4152 31.5869 31.4152 31.5869 31.1859 31.5847C29.0114 31.5482 26.9477 31.1044 25.28 29.599C23.9734 28.1365 23.6291 26.4853 23.645 24.5915C23.7381 23.0946 24.3742 22.0069 25.45 20.979C28.0898 18.7365 31.9197 18.7668 35.2 18.589C35.367 18.5798 35.534 18.5705 35.706 18.561C36.6038 18.512 37.5017 18.468 38.4 18.429C38.387 16.6248 38.387 16.6248 37.6 15.069C36.5385 14.2334 35.6623 14.0539 34.35 14.059C34.2193 14.0565 34.0887 14.0539 33.954 14.0512C32.9278 14.0504 32.0364 14.1953 31.1962 14.8359C31.0892 14.9662 31.0892 14.9662 30.98 15.099C30.8692 15.2262 30.8692 15.2262 30.7562 15.3559C30.4695 15.8359 30.4695 15.8359 30.24 16.989C28.2864 16.989 26.3328 16.989 24.32 16.989C24.501 15.1794 24.501 15.1794 25 14.229C25.0932 14.0467 25.1864 13.8644 25.2825 13.6765C26.5795 11.5217 28.7039 10.4438 31.07 9.81904C33.754 9.30185 36.5941 9.46492 39.2 10.269Z" fill="#064F89"/>
<path d="M85.76 11.869C87.9647 13.6526 89.0546 16.1822 89.6 18.909C89.6 20.0178 89.6 21.1266 89.6 22.269C84.3728 22.269 79.1456 22.269 73.76 22.269C74.5869 25.0149 74.5869 25.0149 76.5756 26.5628C77.7281 27.1212 79.2579 27.0936 80.485 26.7884C81.4132 26.432 82.1887 26.0409 82.6564 25.1293C83.04 24.669 83.04 24.669 83.6561 24.5894C83.9036 24.603 84.1508 24.6219 84.3975 24.6453C84.5932 24.658 84.5932 24.658 84.7929 24.6709C85.2091 24.699 85.6244 24.7339 86.04 24.769C86.3223 24.7893 86.6045 24.8091 86.8869 24.8284C87.5784 24.8768 88.2692 24.9313 88.96 24.989C88.62 26.0907 88.2124 26.9436 87.52 27.869C87.4476 27.968 87.3752 28.067 87.3006 28.169C85.7922 30.0835 83.1652 31.181 80.7869 31.4797C79.9115 31.5692 79.0393 31.5785 78.16 31.579C78.003 31.581 77.8461 31.583 77.6844 31.585C74.9569 31.5904 72.423 30.508 70.44 28.629C67.9784 26.0311 67.4147 23.0338 67.47 19.5865C67.5738 16.7225 68.7225 14.2459 70.8169 12.2772C75.0116 8.69775 81.2945 8.76653 85.76 11.869Z" fill="#064F89"/>
<path d="M145.6 10.1091C145.774 10.1654 145.947 10.2217 146.126 10.2797C148.988 11.2951 150.828 13.0156 152.16 15.7091C153.14 17.8843 153.12 19.8467 153.12 22.2691C147.893 22.2691 142.666 22.2691 137.28 22.2691C137.678 24.062 138.139 25.2798 139.641 26.3747C140.926 27.1417 142.585 27.1228 144.026 26.7934C144.974 26.4401 145.661 25.9552 146.147 25.0428C146.632 24.6039 146.757 24.6144 147.389 24.6147C147.723 24.6316 148.057 24.6533 148.39 24.6791C148.562 24.6894 148.734 24.6997 148.912 24.7103C150.113 24.7886 151.299 24.9115 152.48 25.1491C151.781 27.4606 150.24 29.1131 148.16 30.2691C147.48 30.5899 146.797 30.8421 146.08 31.0691C145.939 31.12 145.797 31.1709 145.652 31.2234C142.763 32.1308 139.183 31.6857 136.48 30.4291C134.541 29.3993 133.244 28.0001 132.16 26.1091C132.096 26.0043 132.032 25.8995 131.966 25.7916C131.031 24.1416 130.997 22.2942 130.99 20.4491C130.989 20.2703 130.988 20.0915 130.987 19.9073C130.996 18.9293 131.077 18.0851 131.36 17.1491C131.4 16.9933 131.44 16.8376 131.481 16.6772C132.267 14.0128 134.132 12.1315 136.48 10.7491C137.002 10.484 137.521 10.2837 138.08 10.1091C138.226 10.0614 138.373 10.0138 138.524 9.96469C140.776 9.33658 143.38 9.38374 145.6 10.1091Z" fill="#064F89"/>
<path d="M126.571 10.8815C127.968 11.9058 128.656 13.2755 129.12 14.909C129.173 15.0674 129.226 15.2258 129.28 15.389C129.294 15.6063 129.299 15.8243 129.299 16.042C129.3 16.2409 129.3 16.2409 129.3 16.4438C129.299 16.6612 129.299 16.6612 129.298 16.8829C129.298 17.0359 129.298 17.1889 129.298 17.3466C129.298 17.853 129.297 18.3595 129.296 18.8659C129.295 19.2168 129.295 19.5676 129.295 19.9185C129.294 20.8426 129.293 21.7666 129.291 22.6907C129.289 23.6333 129.289 24.576 129.288 25.5187C129.286 27.3688 129.283 29.2189 129.28 31.069C127.274 31.069 125.267 31.069 123.2 31.069C123.194 30.0924 123.188 29.1159 123.182 28.1097C123.177 27.4891 123.172 26.8686 123.167 26.2481C123.158 25.2643 123.15 24.2804 123.145 23.2966C123.14 22.5029 123.134 21.7093 123.126 20.9157C123.123 20.6137 123.121 20.3116 123.12 20.0096C123.119 19.5849 123.114 19.1603 123.109 18.7356C123.109 18.6122 123.11 18.4887 123.11 18.3614C123.093 17.3632 122.922 16.3346 122.296 15.5297C122.205 15.4602 122.114 15.3907 122.02 15.319C121.93 15.2466 121.839 15.1743 121.746 15.0997C120.629 14.4041 119.316 14.4265 118.044 14.6522C117.226 14.9411 116.621 15.6399 116.16 16.349C115.759 17.2711 115.609 18.0086 115.611 19.0081C115.609 19.1394 115.608 19.2707 115.606 19.4059C115.601 19.8353 115.6 20.2646 115.598 20.694C115.595 20.9935 115.592 21.293 115.589 21.5925C115.582 22.3774 115.577 23.1623 115.573 23.9472C115.567 24.8908 115.558 25.8343 115.55 26.7779C115.537 28.2083 115.529 29.6386 115.52 31.069C113.514 31.069 111.507 31.069 109.44 31.069C109.44 24.205 109.44 17.341 109.44 10.269C111.498 10.269 113.036 10.433 114.56 11.869C114.78 12.13 114.996 12.3949 115.2 12.669C115.306 12.7218 115.411 12.7746 115.52 12.829C115.562 12.7362 115.603 12.6434 115.646 12.5478C116.455 11.0504 118.02 10.3007 119.566 9.76779C121.984 9.20324 124.45 9.61728 126.571 10.8815Z" fill="#064F89"/>
<path d="M38.1541 21.662C38.3014 24.5426 38.3014 24.5426 37.6016 25.4213C36.184 26.7996 34.5366 27.1545 32.6016 27.137C31.5103 27.0646 30.6288 26.7526 29.8341 25.982C29.3557 25.2643 29.4021 24.5826 29.5141 23.742C30.0539 22.7524 30.8657 22.4665 31.9141 22.142C32.5227 22.0349 33.1277 21.9887 33.7441 21.952C34.0539 21.9297 34.3637 21.9074 34.6735 21.8851C34.8251 21.8751 34.9766 21.8651 35.1328 21.8549C35.7416 21.8114 36.3487 21.7529 36.956 21.6924C37.3571 21.6617 37.7521 21.6568 38.1541 21.662Z" fill="white"/>
<path d="M80.6741 14.2494C81.7127 14.8625 82.4673 15.5972 82.9541 16.7019C83.0597 17.2299 83.1653 17.7579 83.2741 18.3019C80.0533 18.3019 76.8325 18.3019 73.5141 18.3019C73.7164 16.8863 74.1705 15.7365 75.2741 14.7819C76.9308 13.6379 78.823 13.3848 80.6741 14.2494Z" fill="white"/>
<path d="M144.28 14.2494C145.319 14.8625 146.073 15.5972 146.56 16.7019C146.666 17.2299 146.771 17.7579 146.88 18.3019C143.659 18.3019 140.438 18.3019 137.12 18.3019C137.322 16.8863 137.776 15.7365 138.88 14.7819C140.537 13.6379 142.429 13.3848 144.28 14.2494Z" fill="white"/>
<path d="M55.85 9.56905C56.0098 9.56931 56.1696 9.56957 56.3342 9.56984C57.7867 9.59354 59.0977 9.83624 60.48 10.2691C60.6357 10.3171 60.7914 10.3652 60.9519 10.4147C62.8736 11.0945 64.1762 12.5136 65.1231 14.2666C65.28 14.7491 65.28 14.7491 65.44 16.5091C63.4864 16.5091 61.5328 16.5091 59.52 16.5091C59.256 15.9811 58.992 15.4531 58.72 14.9091C57.5525 13.9197 56.2088 13.9598 54.738 14.0573C54.0856 14.1572 53.5309 14.4353 52.97 14.7791C52.685 15.2652 52.7198 15.8065 52.8 16.3491C52.9404 16.7393 53.0197 16.9349 53.3887 17.1341C55.1011 17.5972 56.8557 17.9383 58.6062 18.2228C61.2173 18.6537 63.6659 19.4046 65.28 21.6291C66.0768 22.9753 66.1162 24.6852 65.8462 26.2041C65.3722 27.7878 64.2699 29.249 62.8525 30.0903C59.6462 31.81 55.4116 32.1632 51.9219 31.1203C50.0107 30.4018 48.3592 29.4074 47.38 27.5591C46.9373 26.5772 46.56 25.5926 46.56 24.5091C48.5664 24.5091 50.5728 24.5091 52.64 24.5091C52.7984 24.9843 52.9568 25.4595 53.12 25.9491C54.0395 26.9104 54.9124 27.254 56.21 27.2891C57.3953 27.2577 58.4023 27.1 59.37 26.3891C59.7542 25.8437 59.8521 25.4956 59.84 24.8291C59.2789 24.0876 58.6382 23.825 57.7481 23.6503C57.5533 23.6113 57.3585 23.5724 57.1578 23.5322C56.9507 23.4916 56.7435 23.4509 56.53 23.4091C56.1057 23.3233 55.6816 23.2365 55.2575 23.1497C55.0534 23.108 54.8493 23.0664 54.6391 23.0235C49.5948 21.9908 49.5948 21.9908 48.0681 20.0247C48.0093 19.9238 47.9506 19.823 47.89 19.7191C47.83 19.6186 47.77 19.5182 47.7081 19.4147C47.646 19.3006 47.584 19.1866 47.52 19.0691C47.3919 18.8599 47.3919 18.8599 47.2612 18.6466C46.966 17.9292 46.9637 17.307 46.97 16.5391C46.9668 16.4028 46.9636 16.2666 46.9603 16.1262C46.9615 14.5522 47.6349 13.2949 48.66 12.1191C50.7529 10.2537 53.0786 9.56434 55.85 9.56905Z" fill="#064F89"/>
<path d="M91.84 0.509033C93.8464 0.509033 95.8528 0.509033 97.92 0.509033C97.92 10.5938 97.92 20.6786 97.92 31.069C95.9136 31.069 93.9072 31.069 91.84 31.069C91.84 20.9842 91.84 10.8994 91.84 0.509033Z" fill="#064F89"/>
<path d="M106.72 10.269C106.72 17.133 106.72 23.997 106.72 31.069C104.714 31.069 102.707 31.069 100.64 31.069C100.626 28.8173 100.614 26.5655 100.607 24.3137C100.603 23.268 100.599 22.2224 100.592 21.1768C100.585 20.1674 100.581 19.158 100.579 18.1485C100.578 17.7638 100.576 17.379 100.572 16.9942C100.568 16.4545 100.567 15.915 100.567 15.3753C100.565 15.2168 100.563 15.0583 100.56 14.8951C100.566 13.8929 100.747 13.1988 101.28 12.349C101.366 12.2104 101.452 12.0718 101.54 11.929C103.078 10.3906 104.598 10.269 106.72 10.269Z" fill="#064F89"/>
<path d="M105.722 0.909676C106.417 1.37441 106.877 1.97748 107.2 2.74905C107.351 3.87639 107.251 4.86572 106.56 5.78905C105.863 6.53115 105.18 7.01029 104.146 7.1228C102.862 7.13805 102.12 7.0823 101.171 6.17093C100.372 5.3086 100.068 4.45242 100.1 3.27718C100.267 2.24969 101.01 1.48473 101.801 0.859051C103.071 -0.00491816 104.446 0.210118 105.722 0.909676Z" fill="#064F89"/>
<path d="M155.802 7.69385V5.36657H156.72C156.896 5.36657 157.046 5.39801 157.17 5.46089C157.295 5.52301 157.391 5.61127 157.456 5.72567C157.522 5.8393 157.555 5.97301 157.555 6.1268C157.555 6.28135 157.521 6.4143 157.455 6.52567C157.388 6.63627 157.291 6.72112 157.165 6.78021C157.039 6.8393 156.887 6.86885 156.708 6.86885H156.093V6.47339H156.628C156.722 6.47339 156.8 6.46051 156.862 6.43476C156.925 6.409 156.971 6.37036 157.001 6.31885C157.032 6.26733 157.048 6.20332 157.048 6.1268C157.048 6.04953 157.032 5.98438 157.001 5.93135C156.971 5.87832 156.924 5.83817 156.861 5.81089C156.799 5.78286 156.721 5.76885 156.626 5.76885H156.294V7.69385H155.802ZM157.059 6.63476L157.637 7.69385H157.094L156.528 6.63476H157.059Z" fill="#064F89"/>
<circle cx="156.8" cy="6.69384" r="2.96" stroke="#064F89" stroke-width="0.48"/>
</svg>
