<svg width="30" height="31" viewBox="0 0 30 31" fill="none" xmlns="http://www.w3.org/2000/svg">
<path d="M26.25 20.4999V10.4999C26.2496 10.0615 26.1338 9.63089 25.9144 9.25133C25.695 8.87177 25.3797 8.55658 25 8.33738L16.25 3.33738C15.87 3.11796 15.4388 3.00244 15 3.00244C14.5612 3.00244 14.13 3.11796 13.75 3.33738L5 8.33738C4.62033 8.55658 4.30498 8.87177 4.08558 9.25133C3.86618 9.63089 3.75045 10.0615 3.75 10.4999V20.4999C3.75045 20.9383 3.86618 21.3689 4.08558 21.7484C4.30498 22.128 4.62033 22.4432 5 22.6624L13.75 27.6624C14.13 27.8818 14.5612 27.9973 15 27.9973C15.4388 27.9973 15.87 27.8818 16.25 27.6624L25 22.6624C25.3797 22.4432 25.695 22.128 25.9144 21.7484C26.1338 21.3689 26.2496 20.9383 26.25 20.4999Z" stroke="#2C2C2C" stroke-width="2" stroke-linecap="round" stroke-linejoin="round"/>
<path d="M4.0874 9.2002L14.9999 15.5127L25.9124 9.2002" stroke="#2C2C2C" stroke-width="2" stroke-linecap="round" stroke-linejoin="round"/>
<path d="M15 28.1V15.5" stroke="#2C2C2C" stroke-width="2" stroke-linecap="round" stroke-linejoin="round"/>
</svg>
