<svg width="23" height="22" viewBox="0 0 23 22" fill="none" xmlns="http://www.w3.org/2000/svg">
<g clip-path="url(#clip0_33_44)">
<path d="M8.65 20.1667C9.15627 20.1667 9.56667 19.7563 9.56667 19.25C9.56667 18.7437 9.15627 18.3333 8.65 18.3333C8.14374 18.3333 7.73334 18.7437 7.73334 19.25C7.73334 19.7563 8.14374 20.1667 8.65 20.1667Z" stroke="#fff" stroke-width="2" stroke-linecap="round" stroke-linejoin="round"/>
<path d="M18.7334 20.1667C19.2396 20.1667 19.65 19.7563 19.65 19.25C19.65 18.7437 19.2396 18.3333 18.7334 18.3333C18.2271 18.3333 17.8167 18.7437 17.8167 19.25C17.8167 19.7563 18.2271 20.1667 18.7334 20.1667Z" stroke="#fff" stroke-width="2" stroke-linecap="round" stroke-linejoin="round"/>
<path d="M1.31671 0.916656H4.98338L7.44005 13.1908C7.52387 13.6129 7.75346 13.992 8.08863 14.2618C8.4238 14.5316 8.84319 14.6749 9.27338 14.6667H18.1834C18.6136 14.6749 19.033 14.5316 19.3681 14.2618C19.7033 13.992 19.9329 13.6129 20.0167 13.1908L21.4834 5.49999H5.90005" stroke="#fff" stroke-width="2" stroke-linecap="round" stroke-linejoin="round"/>
</g>
<defs>
<clipPath id="clip0_33_44">
<rect width="22" height="22" fill="white" transform="translate(0.400024)"/>
</clipPath>
</defs>
</svg>
