<svg width="28" height="31" viewBox="0 0 28 31" fill="none" xmlns="http://www.w3.org/2000/svg">
<path d="M0 0.064044C4.79588 -0.0931386 4.79588 -0.0931386 6.72 1.66404C7.73385 2.72397 8.21242 3.94651 8.61437 5.33342C8.65419 5.46721 8.694 5.601 8.73502 5.73885C8.86113 6.16359 8.98559 6.5888 9.11 7.01404C9.1927 7.29356 9.27552 7.57304 9.35844 7.85248C9.60043 8.66924 9.84035 9.4866 10.08 10.304C10.2247 10.7968 10.3695 11.2895 10.5144 11.7822C10.5475 11.8949 10.5807 12.0077 10.6148 12.1239C10.8406 12.8914 11.0688 13.6581 11.3 14.424C11.7972 16.0762 12.2885 17.7302 12.78 19.384C12.8407 19.5883 12.8407 19.5883 12.9026 19.7967C13.1351 20.5791 13.3676 21.3616 13.6 22.144C13.8749 21.4263 14.1359 20.7186 14.3381 19.9765C14.4042 19.7367 14.4042 19.7367 14.4716 19.4919C14.5173 19.3243 14.5629 19.1567 14.61 18.984C15.2468 16.6801 15.9262 14.3921 16.65 12.114C17.2008 10.3799 17.7186 8.63825 18.2019 6.88404C18.2512 6.70566 18.3005 6.52728 18.3513 6.3435C18.4484 5.99136 18.5447 5.63902 18.6403 5.28647C19.1223 3.53632 19.6824 2.13652 21.22 1.05404C23.0089 0.0454724 25.0572 0.167511 27.04 0.224044C26.8957 0.868349 26.6775 1.4886 26.4669 2.11342C26.4056 2.29644 26.4056 2.29644 26.343 2.48315C26.169 3.00267 25.9944 3.52201 25.8198 4.04135C25.6919 4.42197 25.5643 4.80267 25.4369 5.18342C25.3744 5.3699 25.3744 5.3699 25.3107 5.56015C25.0193 6.4343 24.7455 7.31251 24.4877 8.19721C24.3488 8.61697 24.195 9.01795 24.0277 9.42666C23.6193 10.435 23.2801 11.464 22.9387 12.4965C22.8682 12.7088 22.7976 12.921 22.727 13.1332C22.5415 13.6909 22.3566 14.2489 22.1717 14.8068C21.9894 15.3571 21.8066 15.9071 21.6237 16.4572C21.3334 17.331 21.0432 18.2049 20.7532 19.0788C18.6334 25.466 18.6334 25.466 17.6247 28.3387C17.5602 28.5238 17.4958 28.709 17.4294 28.8997C17.3734 29.0593 17.3174 29.219 17.2596 29.3835C17.129 29.7956 17.0354 30.1987 16.96 30.624C16.0088 30.6359 15.0577 30.6446 14.1065 30.6504C13.7827 30.6528 13.459 30.6561 13.1352 30.6603C12.6706 30.6661 12.206 30.6688 11.7412 30.6709C11.5959 30.6734 11.4506 30.6759 11.3008 30.6784C11.0991 30.6785 11.0991 30.6785 10.8932 30.6785C10.7152 30.6801 10.7152 30.6801 10.5336 30.6818C10.4367 30.6627 10.3398 30.6437 10.24 30.624C9.89203 30.1021 9.77259 29.678 9.61 29.074C9.41595 28.3552 9.19152 27.6646 8.92788 26.9685C8.7259 26.4245 8.54352 25.8743 8.36125 25.3234C8.32121 25.2031 8.28117 25.0827 8.23992 24.9587C8.11305 24.5772 7.98652 24.1956 7.86 23.814C7.77648 23.5627 7.69294 23.3113 7.60937 23.06C7.56833 22.9365 7.52728 22.813 7.48499 22.6857C7.4026 22.4378 7.32019 22.19 7.23774 21.9421C7.04494 21.3621 6.85288 20.7819 6.66297 20.201C6.62842 20.0959 6.59387 19.9908 6.55828 19.8825C6.46619 19.6023 6.3746 19.322 6.28305 19.0416C6.12571 18.5941 5.95782 18.1594 5.7782 17.7209C5.39593 16.7748 5.08252 15.81 4.77 14.839C4.7085 14.6498 4.647 14.4605 4.58363 14.2655C4.32282 13.4628 4.06326 12.6597 3.80359 11.8566C3.61283 11.2673 3.42143 10.6782 3.23 10.089C3.14347 9.82023 3.14347 9.82023 3.0552 9.54598C2.75699 8.62851 2.43455 7.73079 2.06896 6.83812C1.83228 6.24377 1.63417 5.63821 1.4375 5.02967C1.39579 4.90167 1.35408 4.77367 1.3111 4.6418C1.22426 4.37476 1.1377 4.10763 1.05141 3.84041C0.918949 3.43079 0.785146 3.02163 0.65125 2.61248C0.566586 2.35157 0.482 2.09063 0.3975 1.82967C0.35751 1.70767 0.31752 1.58568 0.276318 1.45998C0.121256 0.976894 0 0.57478 0 0.064044Z" fill="#064F89"/>
</svg>
